<?xml version="1.0" encoding="utf-8"?>
<!-- Generator: Adobe Illustrator 20.0.0, SVG Export Plug-In . SVG Version: 6.00 Build 0)  -->
<!DOCTYPE svg PUBLIC "-//W3C//DTD SVG 1.1//EN" "http://www.w3.org/Graphics/SVG/1.1/DTD/svg11.dtd">
<svg version="1.1" id="Layer_1" xmlns="http://www.w3.org/2000/svg" xmlns:xlink="http://www.w3.org/1999/xlink" x="0px" y="0px"
	 viewBox="0 0 57.6 57.6" style="enable-background:new 0 0 57.6 57.6;" xml:space="preserve">
<style type="text/css">
	.st0{opacity:0.25;clip-path:url(#XMLID_2_);}
	.st1{opacity:0.25;}
	.st2{clip-path:url(#SVGID_2_);}
	.st3{clip-path:url(#XMLID_3_);}
	.st4{fill:#006811;}
	.st5{opacity:0.5;clip-path:url(#XMLID_4_);fill:#D9FF1A;}
	.st6{clip-path:url(#SVGID_4_);}
	.st7{clip-path:url(#XMLID_5_);}
	.st8{fill:#F5F5F7;}
	.st9{fill:#737EB3;}
	.st10{fill:#C8C8CC;}
</style>
<g>
	<g>
		<defs>
			<path id="XMLID_42_" d="M40.1,51.1v-3.4v-7.4c0,0,0.3-2.8,2.2-2.8c1.9,0,1.7,3,5.1,3c1.7,0,4.7-0.9,4.7-6.2c0-5.4-3-6-4.7-6
				c-3.5,0-3.3,2.8-5.1,2.8c-1.9,0-2.2-2.9-2.2-2.9l0-4.5c0-1.7-1.4-3.1-3-3.1l-8,0c0,0-2.6-0.5-2.6-2.3c0-1.9,2.9-2,2.9-5.5
				c0-1.7-1-4.5-6.3-4.5c-5.4,0-6.1,2.7-6.1,4.5c0,3.5,2.6,3.6,2.6,5.5c0,1.9-2.6,2.3-2.6,2.3l-7.4,0c-1,0-1.9,0.5-2.4,1.3
				c-0.4,0.5-0.6,1.1-0.6,1.8l0,6c0,0-0.3,4.6,3.4,4.6c2.3,0,2.5-3.1,5.5-3.1c1.5,0,3.1,1.4,3.1,4.6c0,3.2-1.6,4.8-3.1,4.8
				c-3.1,0-3.2-3.1-5.5-3.1c-3.7,0-3.4,4.4-3.4,4.4l0,9.3c0,1.7,1.4,3.1,3,3.1l10,0c0,0,4.8,0.3,4.8-3.4c0-2.3-3-2.8-3-5.8
				c0-1.5,1.7-3.4,4.9-3.4c3.2,0,5.1,1.9,5.1,3.4c0,3.1-2.9,3.5-2.9,5.8c0,3.7,4.8,3.4,4.8,3.4l4,0C38.7,54.2,40.1,52.8,40.1,51.1z"
				/>
		</defs>
		<use xlink:href="#XMLID_42_"  style="overflow:visible;fill:#5FBF00;"/>
		<clipPath id="XMLID_2_">
			<use xlink:href="#XMLID_42_"  style="overflow:visible;"/>
		</clipPath>
		<g class="st0">
			<defs>
				<polygon id="SVGID_1_" class="st1" points="41.9,32.5 2.3,32.5 2.3,4.2 41.9,4.1 				"/>
			</defs>
			<clipPath id="SVGID_2_">
				<use xlink:href="#SVGID_1_"  style="overflow:visible;"/>
			</clipPath>
			<g class="st2">
				<g>
					<defs>
						<path id="XMLID_45_" d="M14.6,34V19.6c1.2-0.4,2.2-1.1,3.1-1.9c1.4-1.4,2.3-3.4,2.3-5.6c0-3.3-2-6.1-4.8-7.3
							c-0.1,0-0.1,0-0.2,0c-0.1,0-0.2,0-0.3,0.1c-0.1,0.1-0.1,0.2-0.1,0.3l0,6.1c0,0.3-0.1,0.6-0.3,0.8c-0.2,0.2-0.5,0.3-0.8,0.3
							l-2.8,0c-0.7,0-1.2-0.5-1.2-1.2V5.1c0-0.2-0.2-0.4-0.4-0.4c-0.1,0-0.1,0-0.2,0C8,5.1,7.2,5.7,6.4,6.4C5,7.9,4.1,9.8,4.1,12
							c0,3.5,2.2,6.5,5.4,7.5V27h5.1v2.9H9.5V34c-1.2,0.4-2.2,1.1-3.1,1.9c-1.4,1.4-2.3,3.4-2.3,5.6c0,3.3,2,6.1,4.8,7.3
							c0.1,0,0.1,0,0.2,0c0.1,0,0.2,0,0.3-0.1c0.1-0.1,0.1-0.2,0.1-0.3v-6.1c0-0.3,0.1-0.6,0.3-0.8c0.2-0.2,0.5-0.3,0.8-0.3l2.8,0
							c0.7,0,1.2,0.5,1.2,1.2v6.1c0,0.2,0.2,0.4,0.4,0.4c0.1,0,0.1,0,0.2,0c0.9-0.4,1.8-1,2.5-1.7c1.4-1.4,2.3-3.4,2.3-5.6
							C20,38,17.8,35.1,14.6,34z"/>
					</defs>
					<use xlink:href="#XMLID_45_"  style="overflow:visible;fill:#006811;"/>
					<clipPath id="XMLID_3_">
						<use xlink:href="#XMLID_45_"  style="overflow:visible;"/>
					</clipPath>
					<g class="st3">
						<path class="st4" d="M16.2,34V19.6c1.2-0.4,2.2-1.1,3.1-1.9c1.4-1.4,2.3-3.4,2.3-5.6c0-3.3-2-6.1-4.8-7.3c-0.1,0-0.1,0-0.2,0
							c-0.1,0-0.2,0-0.3,0.1c-0.1,0.1-0.1,0.2-0.1,0.3l0,6.1c0,0.3-0.1,0.6-0.3,0.8c-0.2,0.2-0.5,0.3-0.8,0.3l-2.8,0
							c-0.7,0-1.2-0.5-1.2-1.2V5.1c0-0.2-0.2-0.4-0.4-0.4c-0.1,0-0.1,0-0.2,0C9.5,5.1,8.7,5.7,8,6.4C6.5,7.9,5.7,9.8,5.7,12
							c0,3.5,2.2,6.5,5.4,7.5V27h5.1v2.9H11V34c-1.2,0.4-2.2,1.1-3.1,1.9c-1.4,1.4-2.3,3.4-2.3,5.6c0,3.3,2,6.1,4.8,7.3
							c0.1,0,0.1,0,0.2,0c0.1,0,0.2,0,0.3-0.1c0.1-0.1,0.1-0.2,0.1-0.3v-6.1c0-0.3,0.1-0.6,0.3-0.8c0.2-0.2,0.5-0.3,0.8-0.3l2.8,0
							c0.7,0,1.2,0.5,1.2,1.2v6.1c0,0.2,0.2,0.4,0.4,0.4c0.1,0,0.1,0,0.2,0c0.9-0.4,1.8-1,2.5-1.7c1.4-1.4,2.3-3.4,2.3-5.6
							C21.6,38,19.3,35.1,16.2,34z"/>
						<polygon class="st4" points="16.2,29.9 16.2,27 11,27 11,27 11,29.9 11,29.9 						"/>
					</g>
				</g>
				<polygon class="st4" points="14.6,29.9 14.6,27 9.5,27 9.5,27 9.5,29.9 9.5,29.9 				"/>
			</g>
			<g class="st2">
				<g id="Layer_2_83_">
					<path class="st4" d="M22.4,46.4V19.1c0-1.2,1-2.2,2.2-2.2h3.5c1.2,0,2.2,1,2.2,2.2v27.3c0,1.2-1,2.2-2.2,2.2h-3.5
						C23.4,48.6,22.4,47.6,22.4,46.4z"/>
				</g>
				<g id="Layer_3_114_">
					<path class="st4" d="M21.9,46.6c-0.1-0.1-0.1-0.2-0.2-0.3c-0.2-0.4,0-0.9,0.4-1l7.8-3.2c0.4-0.2,0.9,0,1,0.4
						c0.2,0.4,0,0.9-0.4,1l-7.8,3.2C22.4,46.9,22.1,46.8,21.9,46.6z M22.7,43.7l7.8-3.2c0.4-0.2,0.6-0.6,0.4-1
						c-0.2-0.4-0.6-0.6-1-0.4l-7.8,3.2c-0.4,0.2-0.6,0.6-0.4,1c0,0.1,0.1,0.2,0.2,0.3C22.1,43.7,22.4,43.8,22.7,43.7z M22.7,40.7
						l7.8-3.2c0.4-0.2,0.6-0.6,0.4-1c-0.2-0.4-0.6-0.6-1-0.4l-7.8,3.2c-0.4,0.2-0.6,0.6-0.4,1c0,0.1,0.1,0.2,0.2,0.3
						C22.1,40.7,22.4,40.8,22.7,40.7z M22.7,37.6l7.8-3.2c0.4-0.2,0.6-0.6,0.4-1c-0.2-0.4-0.6-0.6-1-0.4l-7.8,3.2
						c-0.4,0.2-0.6,0.6-0.4,1c0,0.1,0.1,0.2,0.2,0.3C22.1,37.6,22.4,37.7,22.7,37.6z M22.7,28.5l7.8-3.2c0.4-0.2,0.6-0.6,0.4-1
						c-0.2-0.4-0.6-0.6-1-0.4L22.1,27c-0.4,0.2-0.6,0.6-0.4,1c0,0.1,0.1,0.2,0.2,0.3C22.1,28.5,22.4,28.6,22.7,28.5z M22.7,25.4
						l7.8-3.2c0.4-0.2,0.6-0.6,0.4-1s-0.6-0.6-1-0.4L22.1,24c-0.4,0.2-0.6,0.6-0.4,1c0,0.1,0.1,0.2,0.2,0.3
						C22.1,25.5,22.4,25.5,22.7,25.4z M22.7,22.4l7.8-3.2c0.4-0.2,0.6-0.6,0.4-1c-0.2-0.4-0.6-0.6-1-0.4l-7.8,3.2
						c-0.4,0.2-0.6,0.6-0.4,1c0,0.1,0.1,0.2,0.2,0.3C22.1,22.4,22.4,22.5,22.7,22.4z"/>
				</g>
				<g id="Layer_4_83_">
					<path class="st4" d="M33.7,34.7H19c-1.2,0-2.2-1-2.2-2.2l0-3.9c0-1.2,1-2.2,2.2-2.2h14.7c1.2,0,2.2,1,2.2,2.2v3.9
						C35.9,33.7,34.9,34.7,33.7,34.7z M35.9,17.4l0-3.9c0-1.2-1-2.2-2.2-2.2l-14.7,0c-1.2,0-2.2,1-2.2,2.2l0,3.9
						c0,1.2,1,2.2,2.2,2.2l14.7,0C34.9,19.5,35.9,18.6,35.9,17.4z"/>
				</g>
				<g id="Layer_5_104_">
					<path class="st4" d="M21.7,34.7H19c-1.2,0-2.2-1-2.2-2.2l0-3.9c0-1.2,1-2.2,2.2-2.2h2.7V34.7z M21.7,11.3l-2.7,0
						c-1.2,0-2.2,1-2.2,2.2l0,3.9c0,1.2,1,2.2,2.2,2.2h2.7L21.7,11.3z"/>
				</g>
				<g id="Layer_6_77_">
					<path class="st4" d="M33.7,34.7H31v-8.2h2.7c1.2,0,2.2,1,2.2,2.2l0,3.9C35.9,33.7,34.9,34.7,33.7,34.7z M35.9,17.4l0-3.9
						c0-1.2-1-2.2-2.2-2.2H31v8.2h2.7C34.9,19.5,35.9,18.6,35.9,17.4z"/>
				</g>
			</g>
		</g>
	</g>
	<g>
		<defs>
			<path id="XMLID_44_" d="M47.4,28.1c-3.5,0-3.3,2.8-5.1,2.8c-1.2,0-1.8-1.3-2-2.1H6.5l0,0.8c0,0-0.3,4.6,3.4,4.6
				c2.3,0,2.5-3.1,5.5-3.1c1.5,0,3.1,1.4,3.1,4.6c0,3.2-1.6,4.8-3.1,4.8c-3.1,0-3.2-3.1-5.5-3.1c-3.7,0-3.4,4.4-3.4,4.4l0,9.3
				c0,1.7,1.4,3.1,3,3.1h10c0,0,4.8,0.3,4.8-3.4c0-2.3-3-2.8-3-5.8c0-1.5,1.7-3.4,4.9-3.4c3.2,0,5.1,1.9,5.1,3.4
				c0,3.1-2.9,3.5-2.9,5.8c0,3.7,4.8,3.4,4.8,3.4l4,0c1.7,0,3-1.4,3-3.1v-3.4v-7.4c0,0,0.3-2.8,2.2-2.8c1.9,0,1.7,3,5.1,3
				c1.7,0,4.7-0.9,4.7-6.2C52.1,28.8,49.1,28.1,47.4,28.1z"/>
		</defs>
		<use xlink:href="#XMLID_44_"  style="overflow:visible;fill:#95E100;"/>
		<clipPath id="XMLID_4_">
			<use xlink:href="#XMLID_44_"  style="overflow:visible;"/>
		</clipPath>
		<path class="st5" d="M55,17.1v32c0,1-0.8,1.8-1.8,1.8H11.6c-1,0-1.8-0.8-1.8-1.8v-32c0-1,0.8-1.8,1.8-1.8h41.6
			C54.1,15.3,55,16.1,55,17.1z"/>
	</g>
	<g>
		<defs>
			<polygon id="SVGID_3_" points="44,28.7 4.4,28.7 4.4,0.3 44,0.2 			"/>
		</defs>
		<clipPath id="SVGID_4_">
			<use xlink:href="#SVGID_3_"  style="overflow:visible;"/>
		</clipPath>
		<g class="st6">
			<g>
				<defs>
					<path id="XMLID_43_" d="M16.7,33.1V18.7c1.2-0.4,2.2-1.1,3.1-1.9c1.4-1.4,2.3-3.4,2.3-5.6c0-3.3-2-6.1-4.8-7.3
						c-0.1,0-0.1,0-0.2,0c-0.1,0-0.2,0-0.3,0.1c-0.1,0.1-0.1,0.2-0.1,0.3l0,6.1c0,0.3-0.1,0.6-0.3,0.8c-0.2,0.2-0.5,0.3-0.8,0.3
						l-2.8,0c-0.7,0-1.2-0.5-1.2-1.2V4.3c0-0.2-0.2-0.4-0.4-0.4c-0.1,0-0.1,0-0.2,0c-0.9,0.4-1.8,1-2.5,1.7C7.1,7,6.2,9,6.2,11.2
						c0,3.5,2.2,6.5,5.4,7.5v7.4h5.1v2.9h-5.1v4.1c-1.2,0.4-2.2,1.1-3.1,1.9c-1.4,1.4-2.3,3.4-2.3,5.6c0,3.3,2,6.1,4.8,7.3
						c0.1,0,0.1,0,0.2,0c0.1,0,0.2,0,0.3-0.1c0.1-0.1,0.1-0.2,0.1-0.3v-6.1c0-0.3,0.1-0.6,0.3-0.8c0.2-0.2,0.5-0.3,0.8-0.3l2.8,0
						c0.7,0,1.2,0.5,1.2,1.2v6.1c0,0.2,0.2,0.4,0.4,0.4c0.1,0,0.1,0,0.2,0c0.9-0.4,1.8-1,2.5-1.7c1.4-1.4,2.3-3.4,2.3-5.6
						C22.1,37.2,19.9,34.2,16.7,33.1z"/>
				</defs>
				<use xlink:href="#XMLID_43_"  style="overflow:visible;fill:#C8C8CC;"/>
				<clipPath id="XMLID_5_">
					<use xlink:href="#XMLID_43_"  style="overflow:visible;"/>
				</clipPath>
				<g class="st7">
					<path class="st8" d="M18.3,33.1V18.7c1.2-0.4,2.2-1.1,3.1-1.9c1.4-1.4,2.3-3.4,2.3-5.6c0-3.3-2-6.1-4.8-7.3c-0.1,0-0.1,0-0.2,0
						c-0.1,0-0.2,0-0.3,0.1c-0.1,0.1-0.1,0.2-0.1,0.3l0,6.1c0,0.3-0.1,0.6-0.3,0.8c-0.2,0.2-0.5,0.3-0.8,0.3l-2.8,0
						c-0.7,0-1.2-0.5-1.2-1.2V4.3c0-0.2-0.2-0.4-0.4-0.4c-0.1,0-0.1,0-0.2,0c-0.9,0.4-1.8,1-2.5,1.7C8.6,7,7.8,9,7.8,11.2
						c0,3.5,2.2,6.5,5.4,7.5v7.4h5.1v2.9h-5.1v4.1c-1.2,0.4-2.2,1.1-3.1,1.9c-1.4,1.4-2.3,3.4-2.3,5.6c0,3.3,2,6.1,4.8,7.3
						c0.1,0,0.1,0,0.2,0c0.1,0,0.2,0,0.3-0.1c0.1-0.1,0.1-0.2,0.1-0.3v-6.1c0-0.3,0.1-0.6,0.3-0.8c0.2-0.2,0.5-0.3,0.8-0.3l2.8,0
						c0.7,0,1.2,0.5,1.2,1.2v6.1c0,0.2,0.2,0.4,0.4,0.4c0.1,0,0.1,0,0.2,0c0.9-0.4,1.8-1,2.5-1.7c1.4-1.4,2.3-3.4,2.3-5.6
						C23.7,37.2,21.4,34.2,18.3,33.1z"/>
					<polygon class="st8" points="18.3,29.1 18.3,26.2 13.1,26.2 13.1,26.2 13.1,29.1 13.1,29.1 					"/>
				</g>
			</g>
			<polygon class="st9" points="16.7,29.1 16.7,26.2 11.6,26.2 11.6,26.2 11.6,29.1 11.6,29.1 			"/>
		</g>
		<g class="st6">
			<g id="Layer_2_79_">
				<path class="st10" d="M24.5,45.6V18.3c0-1.2,1-2.2,2.2-2.2h3.5c1.2,0,2.2,1,2.2,2.2v27.3c0,1.2-1,2.2-2.2,2.2h-3.5
					C25.5,47.8,24.5,46.8,24.5,45.6z"/>
			</g>
			<g id="Layer_3_88_">
				<path class="st9" d="M24,45.7c-0.1-0.1-0.1-0.2-0.2-0.3c-0.2-0.4,0-0.9,0.4-1l7.8-3.2c0.4-0.2,0.9,0,1,0.4c0.2,0.4,0,0.9-0.4,1
					l-7.8,3.2C24.5,46,24.2,45.9,24,45.7z M24.8,42.9l7.8-3.2c0.4-0.2,0.6-0.6,0.4-1c-0.2-0.4-0.6-0.6-1-0.4l-7.8,3.2
					c-0.4,0.2-0.6,0.6-0.4,1c0,0.1,0.1,0.2,0.2,0.3C24.2,42.9,24.5,43,24.8,42.9z M24.8,39.8l7.8-3.2c0.4-0.2,0.6-0.6,0.4-1
					c-0.2-0.4-0.6-0.6-1-0.4l-7.8,3.2c-0.4,0.2-0.6,0.6-0.4,1c0,0.1,0.1,0.2,0.2,0.3C24.2,39.8,24.5,39.9,24.8,39.8z M24.8,36.8
					l7.8-3.2c0.4-0.2,0.6-0.6,0.4-1c-0.2-0.4-0.6-0.6-1-0.4l-7.8,3.2c-0.4,0.2-0.6,0.6-0.4,1c0,0.1,0.1,0.2,0.2,0.3
					C24.2,36.8,24.5,36.9,24.8,36.8z M24.8,27.6l7.8-3.2c0.4-0.2,0.6-0.6,0.4-1c-0.2-0.4-0.6-0.6-1-0.4l-7.8,3.2
					c-0.4,0.2-0.6,0.6-0.4,1c0,0.1,0.1,0.2,0.2,0.3C24.2,27.7,24.5,27.7,24.8,27.6z M24.8,24.6l7.8-3.2c0.4-0.2,0.6-0.6,0.4-1
					c-0.2-0.4-0.6-0.6-1-0.4l-7.8,3.2c-0.4,0.2-0.6,0.6-0.4,1c0,0.1,0.1,0.2,0.2,0.3C24.2,24.6,24.5,24.7,24.8,24.6z M24.8,21.5
					l7.8-3.2c0.4-0.2,0.6-0.6,0.4-1c-0.2-0.4-0.6-0.6-1-0.4l-7.8,3.2c-0.4,0.2-0.6,0.6-0.4,1c0,0.1,0.1,0.2,0.2,0.3
					C24.2,21.6,24.5,21.6,24.8,21.5z"/>
			</g>
			<g id="Layer_4_82_">
				<path class="st10" d="M35.8,33.8H21.1c-1.2,0-2.2-1-2.2-2.2l0-3.9c0-1.2,1-2.2,2.2-2.2l14.7,0c1.2,0,2.2,1,2.2,2.2v3.9
					C38,32.8,37,33.8,35.8,33.8z M38,16.5l0-3.9c0-1.2-1-2.2-2.2-2.2l-14.7,0c-1.2,0-2.2,1-2.2,2.2l0,3.9c0,1.2,1,2.2,2.2,2.2
					l14.7,0C37,18.7,38,17.7,38,16.5z"/>
			</g>
			<g id="Layer_5_80_">
				<path class="st9" d="M23.8,33.8h-2.7c-1.2,0-2.2-1-2.2-2.2l0-3.9c0-1.2,1-2.2,2.2-2.2h2.7L23.8,33.8z M23.8,10.5h-2.7
					c-1.2,0-2.2,1-2.2,2.2l0,3.9c0,1.2,1,2.2,2.2,2.2h2.7L23.8,10.5z"/>
			</g>
			<g id="Layer_6_73_">
				<path class="st8" d="M35.8,33.8h-2.7v-8.2h2.7c1.2,0,2.2,1,2.2,2.2l0,3.9C38,32.8,37,33.8,35.8,33.8z M38,16.5l0-3.9
					c0-1.2-1-2.2-2.2-2.2h-2.7v8.2h2.7C37,18.7,38,17.7,38,16.5z"/>
			</g>
		</g>
	</g>
</g>
</svg>
